<mxfile host="app.diagrams.net" agent="Mozilla/5.0 (X11; Linux x86_64) AppleWebKit/537.36 (KHTML, like Gecko) Chrome/126.0.0.0 YaBrowser/24.7.0.0 Safari/537.36" version="24.8.0">
  <diagram name="Page-1" id="13e1069c-82ec-6db2-03f1-153e76fe0fe0">
    <mxGraphModel dx="1111" dy="627" grid="0" gridSize="10" guides="1" tooltips="1" connect="1" arrows="1" fold="1" page="0" pageScale="1" pageWidth="1100" pageHeight="850" background="none" math="0" shadow="0">
      <root>
        <mxCell id="0" />
        <mxCell id="1" parent="0" />
        <mxCell id="7baba1c4bc27f4b0-2" value=":SearchForCard" style="shape=umlLifeline;perimeter=lifelinePerimeter;whiteSpace=wrap;html=1;container=1;collapsible=0;recursiveResize=0;outlineConnect=0;rounded=1;shadow=0;comic=0;labelBackgroundColor=none;strokeWidth=1;fontFamily=Verdana;fontSize=12;align=center;" parent="1" vertex="1">
          <mxGeometry x="228" y="80" width="112" height="528" as="geometry" />
        </mxCell>
        <mxCell id="7baba1c4bc27f4b0-10" value="" style="html=1;points=[];perimeter=orthogonalPerimeter;rounded=0;shadow=0;comic=0;labelBackgroundColor=none;strokeWidth=1;fontFamily=Verdana;fontSize=12;align=center;" parent="7baba1c4bc27f4b0-2" vertex="1">
          <mxGeometry x="48" y="100" width="10" height="381" as="geometry" />
        </mxCell>
        <mxCell id="0QgJK9oHfc26cXIU3LFE-2" value="&lt;b&gt;1.1 validateSearchCriteria(query)&lt;/b&gt;" style="html=1;verticalAlign=bottom;endArrow=block;labelBackgroundColor=none;fontFamily=Verdana;fontSize=12;elbow=vertical;edgeStyle=orthogonalEdgeStyle;curved=1;" parent="7baba1c4bc27f4b0-2" edge="1">
          <mxGeometry x="-0.3113" y="72" relative="1" as="geometry">
            <mxPoint x="57" y="120" as="sourcePoint" />
            <mxPoint x="56" y="166" as="targetPoint" />
            <Array as="points">
              <mxPoint x="109" y="120" />
              <mxPoint x="109" y="166" />
            </Array>
            <mxPoint y="-3" as="offset" />
          </mxGeometry>
        </mxCell>
        <mxCell id="0QgJK9oHfc26cXIU3LFE-3" value="alt" style="shape=umlFrame;whiteSpace=wrap;html=1;pointerEvents=0;" parent="7baba1c4bc27f4b0-2" vertex="1">
          <mxGeometry x="-21" y="204" width="374" height="268" as="geometry" />
        </mxCell>
        <mxCell id="0QgJK9oHfc26cXIU3LFE-5" value="[name not entered]" style="text;html=1;align=center;verticalAlign=middle;resizable=0;points=[];autosize=1;strokeColor=none;fillColor=none;" parent="7baba1c4bc27f4b0-2" vertex="1">
          <mxGeometry y="395" width="119" height="26" as="geometry" />
        </mxCell>
        <mxCell id="0QgJK9oHfc26cXIU3LFE-4" value="[name entered]" style="text;html=1;align=center;verticalAlign=middle;resizable=0;points=[];autosize=1;strokeColor=none;fillColor=none;" parent="7baba1c4bc27f4b0-2" vertex="1">
          <mxGeometry x="12" y="241" width="99" height="26" as="geometry" />
        </mxCell>
        <mxCell id="0QgJK9oHfc26cXIU3LFE-6" value="" style="endArrow=none;dashed=1;html=1;dashPattern=1 3;strokeWidth=2;rounded=0;exitX=-0.003;exitY=0.507;exitDx=0;exitDy=0;exitPerimeter=0;entryX=0.997;entryY=0.502;entryDx=0;entryDy=0;entryPerimeter=0;" parent="7baba1c4bc27f4b0-2" source="0QgJK9oHfc26cXIU3LFE-3" target="0QgJK9oHfc26cXIU3LFE-3" edge="1">
          <mxGeometry width="50" height="50" relative="1" as="geometry">
            <mxPoint x="285" y="322" as="sourcePoint" />
            <mxPoint x="255" y="305" as="targetPoint" />
          </mxGeometry>
        </mxCell>
        <mxCell id="7baba1c4bc27f4b0-36" value="&lt;b&gt;1.3 displayErrorMessage()&lt;/b&gt;" style="html=1;verticalAlign=bottom;endArrow=block;labelBackgroundColor=none;fontFamily=Verdana;fontSize=12;elbow=vertical;edgeStyle=orthogonalEdgeStyle;curved=1;exitX=1.066;exitY=0.713;exitPerimeter=0;entryX=1.227;entryY=0.683;entryDx=0;entryDy=0;entryPerimeter=0;" parent="7baba1c4bc27f4b0-2" edge="1">
          <mxGeometry x="-0.1962" y="51" relative="1" as="geometry">
            <mxPoint x="57.99999999999986" y="328.0200000000001" as="sourcePoint" />
            <mxPoint x="62.609999999999985" y="364.22299999999996" as="targetPoint" />
            <Array as="points">
              <mxPoint x="107.34" y="328" />
              <mxPoint x="107.34" y="364" />
            </Array>
            <mxPoint as="offset" />
          </mxGeometry>
        </mxCell>
        <mxCell id="7baba1c4bc27f4b0-11" value="&lt;b&gt;1: onSearch(query)&lt;/b&gt;" style="html=1;verticalAlign=bottom;endArrow=block;labelBackgroundColor=none;fontFamily=Verdana;fontSize=12;edgeStyle=elbowEdgeStyle;elbow=vertical;" parent="7baba1c4bc27f4b0-2" edge="1">
          <mxGeometry relative="1" as="geometry">
            <mxPoint x="-86.33333333333348" y="115.66666666666674" as="sourcePoint" />
            <mxPoint x="47" y="116" as="targetPoint" />
          </mxGeometry>
        </mxCell>
        <mxCell id="7baba1c4bc27f4b0-3" value=":SearchResultPage" style="shape=umlLifeline;perimeter=lifelinePerimeter;whiteSpace=wrap;html=1;container=1;collapsible=0;recursiveResize=0;outlineConnect=0;rounded=1;shadow=0;comic=0;labelBackgroundColor=none;strokeWidth=1;fontFamily=Verdana;fontSize=12;align=center;" parent="1" vertex="1">
          <mxGeometry x="499" y="68" width="119" height="533" as="geometry" />
        </mxCell>
        <mxCell id="7baba1c4bc27f4b0-13" value="" style="html=1;points=[];perimeter=orthogonalPerimeter;rounded=0;shadow=0;comic=0;labelBackgroundColor=none;strokeWidth=1;fontFamily=Verdana;fontSize=12;align=center;" parent="7baba1c4bc27f4b0-3" vertex="1">
          <mxGeometry x="57" y="279" width="10" height="42" as="geometry" />
        </mxCell>
        <mxCell id="7baba1c4bc27f4b0-4" value=":List_of_Cards" style="shape=umlLifeline;perimeter=lifelinePerimeter;whiteSpace=wrap;html=1;container=1;collapsible=0;recursiveResize=0;outlineConnect=0;rounded=1;shadow=0;comic=0;labelBackgroundColor=none;strokeWidth=1;fontFamily=Verdana;fontSize=12;align=center;" parent="1" vertex="1">
          <mxGeometry x="639" y="68" width="108" height="533" as="geometry" />
        </mxCell>
        <mxCell id="7baba1c4bc27f4b0-5" value=":SearchResults" style="shape=umlLifeline;perimeter=lifelinePerimeter;whiteSpace=wrap;html=1;container=1;collapsible=0;recursiveResize=0;outlineConnect=0;rounded=1;shadow=0;comic=0;labelBackgroundColor=none;strokeWidth=1;fontFamily=Verdana;fontSize=12;align=center;" parent="1" vertex="1">
          <mxGeometry x="829" y="65.5" width="100" height="538" as="geometry" />
        </mxCell>
        <mxCell id="7baba1c4bc27f4b0-19" value="" style="html=1;points=[];perimeter=orthogonalPerimeter;rounded=0;shadow=0;comic=0;labelBackgroundColor=none;strokeWidth=1;fontFamily=Verdana;fontSize=12;align=center;" parent="7baba1c4bc27f4b0-5" vertex="1">
          <mxGeometry x="45" y="251.5" width="10" height="40" as="geometry" />
        </mxCell>
        <mxCell id="0QgJK9oHfc26cXIU3LFE-8" value="1.2.1 List_of_Cards.find()" style="html=1;verticalAlign=bottom;endArrow=block;labelBackgroundColor=none;fontFamily=Verdana;fontSize=12;edgeStyle=elbowEdgeStyle;elbow=vertical;exitX=0.997;exitY=0.434;exitDx=0;exitDy=0;exitPerimeter=0;" parent="7baba1c4bc27f4b0-5" edge="1">
          <mxGeometry relative="1" as="geometry">
            <mxPoint x="-132" y="261.5" as="sourcePoint" />
            <Array as="points">
              <mxPoint x="-7.970000000000027" y="262.38" />
              <mxPoint x="-142.48000000000002" y="108.38999999999999" />
            </Array>
            <mxPoint x="47.53000000000043" y="262.38" as="targetPoint" />
          </mxGeometry>
        </mxCell>
        <mxCell id="7baba1c4bc27f4b0-8" value="" style="shape=umlLifeline;perimeter=lifelinePerimeter;whiteSpace=wrap;html=1;container=1;collapsible=0;recursiveResize=0;outlineConnect=0;rounded=1;shadow=0;comic=0;labelBackgroundColor=none;strokeWidth=1;fontFamily=Verdana;fontSize=12;align=center;strokeColor=none;" parent="1" vertex="1">
          <mxGeometry x="90" y="78" width="100" height="538" as="geometry" />
        </mxCell>
        <mxCell id="7baba1c4bc27f4b0-9" value="" style="html=1;points=[];perimeter=orthogonalPerimeter;rounded=0;shadow=0;comic=0;labelBackgroundColor=none;strokeWidth=1;fontFamily=Verdana;fontSize=12;align=center;" parent="7baba1c4bc27f4b0-8" vertex="1">
          <mxGeometry x="40" y="99" width="10" height="388" as="geometry" />
        </mxCell>
        <mxCell id="0QgJK9oHfc26cXIU3LFE-1" value=": Customer" style="shape=umlActor;verticalLabelPosition=bottom;verticalAlign=top;html=1;outlineConnect=0;" parent="7baba1c4bc27f4b0-8" vertex="1">
          <mxGeometry x="37" y="-10" width="30" height="60" as="geometry" />
        </mxCell>
        <mxCell id="7baba1c4bc27f4b0-16" value="" style="html=1;points=[];perimeter=orthogonalPerimeter;rounded=0;shadow=0;comic=0;labelBackgroundColor=none;strokeWidth=1;fontFamily=Verdana;fontSize=12;align=center;" parent="1" vertex="1">
          <mxGeometry x="687" y="290" width="10" height="180" as="geometry" />
        </mxCell>
        <mxCell id="7baba1c4bc27f4b0-14" value="&lt;b&gt;1.2&amp;nbsp;&lt;span style=&quot;background-color: initial;&quot;&gt;searchByName(query)&lt;/span&gt;&lt;/b&gt;" style="html=1;verticalAlign=bottom;endArrow=block;labelBackgroundColor=none;fontFamily=Verdana;fontSize=12;edgeStyle=elbowEdgeStyle;elbow=vertical;exitX=0.527;exitY=0.449;exitDx=0;exitDy=0;exitPerimeter=0;entryX=0.092;entryY=0.154;entryDx=0;entryDy=0;entryPerimeter=0;" parent="1" source="7baba1c4bc27f4b0-2" target="7baba1c4bc27f4b0-16" edge="1">
          <mxGeometry x="0.1346" relative="1" as="geometry">
            <mxPoint x="296" y="316.9970588235294" as="sourcePoint" />
            <mxPoint x="683" y="317" as="targetPoint" />
            <mxPoint x="-1" as="offset" />
          </mxGeometry>
        </mxCell>
        <mxCell id="MuIcKXOiAdyC3h1f2ndD-1" value="return" style="html=1;verticalAlign=bottom;endArrow=open;dashed=1;endSize=8;labelBackgroundColor=none;fontFamily=Verdana;fontSize=12;" edge="1" parent="1" source="7baba1c4bc27f4b0-3" target="7baba1c4bc27f4b0-10">
          <mxGeometry x="-0.3852" y="-1" relative="1" as="geometry">
            <mxPoint x="215" y="408" as="targetPoint" />
            <mxPoint x="525" y="407" as="sourcePoint" />
            <Array as="points">
              <mxPoint x="518" y="367" />
            </Array>
            <mxPoint as="offset" />
          </mxGeometry>
        </mxCell>
        <mxCell id="7baba1c4bc27f4b0-27" value="return" style="html=1;verticalAlign=bottom;endArrow=open;dashed=1;endSize=8;labelBackgroundColor=none;fontFamily=Verdana;fontSize=12;exitX=-0.136;exitY=0.812;exitDx=0;exitDy=0;exitPerimeter=0;entryX=0.36;entryY=0.062;entryDx=0;entryDy=0;entryPerimeter=0;" parent="1" source="7baba1c4bc27f4b0-19" edge="1" target="7baba1c4bc27f4b0-13">
          <mxGeometry x="-0.3852" y="-1" relative="1" as="geometry">
            <mxPoint x="564" y="391" as="targetPoint" />
            <mxPoint x="834.0003448275861" y="391" as="sourcePoint" />
            <Array as="points" />
            <mxPoint as="offset" />
          </mxGeometry>
        </mxCell>
      </root>
    </mxGraphModel>
  </diagram>
</mxfile>
